<?xml version="1.0" encoding="UTF-8" standalone="no"?>
<svg width="2000px" height="870px" viewBox="0 0 2000 870" version="1.1" xmlns="http://www.w3.org/2000/svg" xmlns:xlink="http://www.w3.org/1999/xlink" xmlns:sketch="http://www.bohemiancoding.com/sketch/ns">
    <!-- Generator: Sketch 3.3.2 (12043) - http://www.bohemiancoding.com/sketch -->
    <title>Untitled</title>
    <desc>Created with Sketch.</desc>
    <defs></defs>
    <g id="Page-1" stroke="none" stroke-width="1" fill="none" fill-rule="evenodd" sketch:type="MSPage">
        <g id="logo-red-copy" sketch:type="MSLayerGroup" fill="#DD4442">
            <path d="M622.735,212.667 L612.617,204.968 C614.406,202.773 756.298,12.52 756.298,12.52 L766.536,20.17 C765.103,22.087 623.302,211.907 622.735,212.667" id="Fill-1" sketch:type="MSShapeGroup"></path>
            <path d="M602.6,198.289 L591.717,191.589 L635.892,119.842 L646.774,126.544 L602.6,198.289" id="Fill-2" sketch:type="MSShapeGroup"></path>
            <path d="M581.264,185.768 L569.822,180.073 L617.93,83.48 L629.37,89.177 L581.264,185.768" id="Fill-3" sketch:type="MSShapeGroup"></path>
            <path d="M558.89,175.211 L546.985,170.564 L591.374,56.905 L603.277,61.553 L558.89,175.211" id="Fill-4" sketch:type="MSShapeGroup"></path>
            <path d="M535.656,166.703 L523.383,163.141 L570.693,0.203 L582.966,3.764 L535.656,166.703" id="Fill-5" sketch:type="MSShapeGroup"></path>
            <path d="M511.755,160.313 L499.212,157.864 L521.75,42.424 L534.292,44.873 L511.755,160.313" id="Fill-6" sketch:type="MSShapeGroup"></path>
            <path d="M487.383,156.088 L474.67,154.771 L485.764,47.468 L498.475,48.785 L487.383,156.088" id="Fill-7" sketch:type="MSShapeGroup"></path>
            <path d="M462.723,154.064 L449.944,153.893 L451.007,73.892 L463.786,74.062 L462.723,154.064" id="Fill-8" sketch:type="MSShapeGroup"></path>
            <path d="M425.242,155.239 L416.005,34.717 L428.746,33.74 L437.984,154.261 L425.242,155.239" id="Fill-9" sketch:type="MSShapeGroup"></path>
            <path d="M400.76,158.786 L385.315,66.737 L397.917,64.621 L413.363,156.672 L400.76,158.786" id="Fill-10" sketch:type="MSShapeGroup"></path>
            <path d="M376.686,164.515 L355.741,84.484 L368.103,81.247 L389.049,161.28 L376.686,164.515" id="Fill-11" sketch:type="MSShapeGroup"></path>
            <path d="M353.233,172.383 L315.029,66.32 L327.053,61.989 L365.256,168.051 L353.233,172.383" id="Fill-12" sketch:type="MSShapeGroup"></path>
            <path d="M330.583,182.319 L307.182,132.036 L318.768,126.643 L342.168,176.927 L330.583,182.319" id="Fill-13" sketch:type="MSShapeGroup"></path>
            <path d="M308.905,194.245 L273.373,132.935 L284.43,126.527 L319.961,187.84 L308.905,194.245" id="Fill-14" sketch:type="MSShapeGroup"></path>
            <path d="M288.387,208.074 L275.841,190.313 L286.28,182.939 L298.825,200.699 L288.387,208.074" id="Fill-15" sketch:type="MSShapeGroup"></path>
            <path d="M269.187,223.677 L198.442,140.495 L208.177,132.217 L278.922,215.4 L269.187,223.677" id="Fill-16" sketch:type="MSShapeGroup"></path>
            <path d="M251.468,240.941 L188.001,178.627 L196.955,169.509 L260.421,231.824 L251.468,240.941" id="Fill-17" sketch:type="MSShapeGroup"></path>
            <path d="M235.369,259.728 L138.776,180.574 L146.875,170.689 L243.468,249.843 L235.369,259.728" id="Fill-18" sketch:type="MSShapeGroup"></path>
            <path d="M221.013,279.874 L131.929,219.358 L139.111,208.785 L228.193,269.303 L221.013,279.874" id="Fill-19" sketch:type="MSShapeGroup"></path>
            <path d="M208.525,301.232 L40.657,207.999 L46.862,196.826 L214.73,290.06 L208.525,301.232" id="Fill-20" sketch:type="MSShapeGroup"></path>
            <path d="M197.999,323.62 L136.153,296.209 L141.332,284.525 L203.176,311.936 L197.999,323.62" id="Fill-21" sketch:type="MSShapeGroup"></path>
            <path d="M189.524,346.866 L29.24,292.42 L33.349,280.32 L193.636,334.765 L189.524,346.866" id="Fill-22" sketch:type="MSShapeGroup"></path>
            <path d="M0,326.397 L183.17,370.769 L186.176,358.349 L3.008,313.977 L0,326.397" id="Fill-23" sketch:type="MSShapeGroup"></path>
            <path d="M178.981,395.156 L104.378,384.038 L106.262,371.4 L180.863,382.518 L178.981,395.156" id="Fill-24" sketch:type="MSShapeGroup"></path>
            <path d="M176.996,419.814 L40.338,411.858 L41.081,399.099 L177.739,407.056 L176.996,419.814" id="Fill-25" sketch:type="MSShapeGroup"></path>
            <path d="M72.936,447.85 L72.533,435.076 L176.824,431.78 L177.227,444.553 L72.936,447.85" id="Fill-26" sketch:type="MSShapeGroup"></path>
            <path d="M47.23,485.323 L45.683,472.638 L178.131,456.483 L179.679,469.17 L47.23,485.323" id="Fill-27" sketch:type="MSShapeGroup"></path>
            <path d="M105.353,510.394 L102.674,497.897 L181.647,480.973 L184.324,493.467 L105.353,510.394" id="Fill-28" sketch:type="MSShapeGroup"></path>
            <path d="M161.495,526.448 L157.707,514.241 L187.344,505.049 L191.13,517.256 L161.495,526.448" id="Fill-29" sketch:type="MSShapeGroup"></path>
            <path d="M110.197,577.329 L105.33,565.513 L195.174,528.515 L200.039,540.333 L110.197,577.329" id="Fill-30" sketch:type="MSShapeGroup"></path>
            <path d="M111.424,614.404 L105.515,603.072 L205.074,551.189 L210.981,562.519 L111.424,614.404" id="Fill-31" sketch:type="MSShapeGroup"></path>
            <path d="M112.122,655.292 L105.226,644.535 L216.974,572.881 L223.872,583.64 L112.122,655.292" id="Fill-32" sketch:type="MSShapeGroup"></path>
            <path d="M142.977,677.716 L135.14,667.621 L230.765,593.42 L238.599,603.516 L142.977,677.716" id="Fill-33" sketch:type="MSShapeGroup"></path>
            <path d="M171.354,699.914 L162.646,690.562 L246.344,612.639 L255.052,621.991 L171.354,699.914" id="Fill-34" sketch:type="MSShapeGroup"></path>
            <path d="M194.294,726.734 L184.782,718.196 L263.582,630.387 L273.093,638.924 L194.294,726.734" id="Fill-35" sketch:type="MSShapeGroup"></path>
            <path d="M228.342,740.152 L218.106,732.504 L282.341,646.516 L292.577,654.166 L228.342,740.152" id="Fill-36" sketch:type="MSShapeGroup"></path>
            <path d="M284.804,713.974 L273.922,707.276 L302.469,660.899 L313.351,667.597 L284.804,713.974" id="Fill-37" sketch:type="MSShapeGroup"></path>
            <path d="M271.631,806.85 L260.191,801.155 L323.808,673.422 L335.247,679.119 L271.631,806.85" id="Fill-38" sketch:type="MSShapeGroup"></path>
            <path d="M319.516,787.391 L307.613,782.744 L346.181,683.977 L358.083,688.625 L319.516,787.391" id="Fill-39" sketch:type="MSShapeGroup"></path>
            <path d="M362.793,761.112 L350.522,757.548 L369.413,692.49 L381.684,696.054 L362.793,761.112" id="Fill-40" sketch:type="MSShapeGroup"></path>
            <path d="M387.206,796.837 L374.665,794.389 L393.308,698.882 L405.85,701.331 L387.206,796.837" id="Fill-41" sketch:type="MSShapeGroup"></path>
            <path d="M420.219,802.858 L407.507,801.54 L417.683,703.104 L430.395,704.42 L420.219,802.858" id="Fill-42" sketch:type="MSShapeGroup"></path>
            <path d="M454.224,772.977 L441.445,772.805 L442.343,705.125 L455.125,705.295 L454.224,772.977" id="Fill-43" sketch:type="MSShapeGroup"></path>
            <path d="M475.227,811.184 L467.085,704.93 L479.826,703.953 L487.971,810.205 L475.227,811.184" id="Fill-44" sketch:type="MSShapeGroup"></path>
            <path d="M513.363,831.58 L491.706,702.521 L504.309,700.406 L525.966,829.464 L513.363,831.58" id="Fill-45" sketch:type="MSShapeGroup"></path>
            <path d="M561.008,869.8 L516.014,697.906 L528.376,694.672 L573.369,866.564 L561.008,869.8" id="Fill-46" sketch:type="MSShapeGroup"></path>
            <path d="M566.607,765.516 L539.809,691.14 L551.83,686.809 L578.629,761.184 L566.607,765.516" id="Fill-47" sketch:type="MSShapeGroup"></path>
            <path d="M608.147,779.491 L562.904,682.265 L574.492,676.872 L619.734,774.1 L608.147,779.491" id="Fill-48" sketch:type="MSShapeGroup"></path>
            <path d="M690.622,853.39 L585.106,671.352 L596.162,664.945 L701.678,846.983 L690.622,853.39" id="Fill-49" sketch:type="MSShapeGroup"></path>
            <path d="M674.414,754.985 L606.246,658.498 L616.682,651.125 L684.85,747.611 L674.414,754.985" id="Fill-50" sketch:type="MSShapeGroup"></path>
            <path d="M632.846,651.767 L626.145,643.797 L635.88,635.519 L642.58,643.489 L632.846,651.767" id="Fill-51" sketch:type="MSShapeGroup"></path>
            <path d="M724.673,705.942 L644.65,627.374 L653.602,618.256 L733.627,696.827 L724.673,705.942" id="Fill-52" sketch:type="MSShapeGroup"></path>
            <path d="M729.074,664.643 L661.602,609.358 L669.701,599.472 L737.173,654.759 L729.074,664.643" id="Fill-53" sketch:type="MSShapeGroup"></path>
            <path d="M764.134,649.164 L676.874,589.891 L684.054,579.32 L771.315,638.593 L764.134,649.164" id="Fill-54" sketch:type="MSShapeGroup"></path>
            <path d="M759.264,607.412 L690.34,569.138 L696.546,557.963 L765.468,596.24 L759.264,607.412" id="Fill-55" sketch:type="MSShapeGroup"></path>
            <path d="M837.856,607.512 L701.892,547.257 L707.069,535.574 L843.031,595.828 L837.856,607.512" id="Fill-56" sketch:type="MSShapeGroup"></path>
            <path d="M744.721,535.734 L711.435,524.433 L715.541,512.332 L748.831,523.634 L744.721,535.734" id="Fill-57" sketch:type="MSShapeGroup"></path>
            <path d="M848.241,532.174 C848.241,532.174 722.583,501.697 718.883,500.771 L721.911,488.423 C722.618,488.596 851.251,519.753 851.251,519.753 L848.241,532.174" id="Fill-58" sketch:type="MSShapeGroup"></path>
            <path d="M828.502,492.215 L724.21,476.678 L726.093,464.04 L830.383,479.576 L828.502,492.215" id="Fill-59" sketch:type="MSShapeGroup"></path>
            <path d="M817.217,457.37 L727.336,452.135 L728.077,439.376 L817.96,444.61 L817.217,457.37" id="Fill-60" sketch:type="MSShapeGroup"></path>
            <path d="M728.252,427.412 L727.848,414.64 L794.772,412.522 L795.179,425.297 L728.252,427.412" id="Fill-61" sketch:type="MSShapeGroup"></path>
            <path d="M726.946,402.705 L725.4,390.019 L783.062,382.984 L784.611,395.668 L726.946,402.705" id="Fill-62" sketch:type="MSShapeGroup"></path>
            <path d="M723.431,378.216 L720.753,365.721 L803.505,347.978 L806.184,360.475 L723.431,378.216" id="Fill-63" sketch:type="MSShapeGroup"></path>
            <path d="M717.734,354.142 L713.945,341.939 L752.158,330.075 L755.945,342.281 L717.734,354.142" id="Fill-64" sketch:type="MSShapeGroup"></path>
            <path d="M709.906,330.67 L705.041,318.853 L758.422,296.869 L763.288,308.684 L709.906,330.67" id="Fill-65" sketch:type="MSShapeGroup"></path>
            <path d="M700.002,307.999 L694.095,296.666 L810.548,235.976 L816.454,247.307 L700.002,307.999" id="Fill-66" sketch:type="MSShapeGroup"></path>
            <path d="M688.105,286.307 L681.208,275.551 L822.523,184.931 L829.421,195.687 L688.105,286.307" id="Fill-67" sketch:type="MSShapeGroup"></path>
            <path d="M674.312,265.768 L666.477,255.673 L696.682,232.235 L704.517,242.332 L674.312,265.768" id="Fill-68" sketch:type="MSShapeGroup"></path>
            <path d="M658.754,246.527 L650.141,237.083 C652.189,235.22 671.38,217.312 671.38,217.312 L680.086,226.667 C680.086,226.667 659.204,246.105 658.754,246.527" id="Fill-69" sketch:type="MSShapeGroup"></path>
            <path d="M641.495,228.801 L631.983,220.265 L776.591,59.107 L786.103,67.644 L641.495,228.801" id="Fill-70" sketch:type="MSShapeGroup"></path>
            <path d="M409.288,468.103 C408.563,470.761 407.356,472.934 405.423,475.108 C403.491,477.282 401.076,478.973 397.694,480.181 C394.312,481.389 389.965,482.113 384.892,482.113 L357.357,482.113 L357.357,440.085 L384.651,440.085 C389.723,440.085 393.83,440.568 396.969,441.534 C400.11,442.5 402.767,443.708 404.699,445.399 C406.631,447.09 408.08,449.264 409.046,451.679 C409.771,454.336 410.254,456.993 410.254,460.133 C410.254,462.79 410.013,465.447 409.288,468.103 L409.288,468.103 Z M357.357,372.453 L380.303,372.453 C384.651,372.453 388.516,372.937 391.656,373.42 C394.795,373.903 397.694,375.111 399.626,376.801 C401.559,378.492 403.249,380.666 404.216,383.323 C405.182,386.222 405.665,389.361 405.665,393.468 C405.665,397.574 404.94,400.955 403.732,403.612 C402.525,406.269 400.593,408.443 398.177,409.892 C395.762,411.342 392.622,412.308 389.24,413.033 C385.859,413.757 381.994,413.998 377.646,414.24 L357.357,414.24 L357.357,372.453 L357.357,372.453 Z M440.688,437.428 C435.374,431.39 427.162,427.042 416.051,424.385 C421.123,422.453 425.471,420.279 429.094,417.863 C432.717,415.206 435.616,412.549 438.031,409.41 C440.205,406.269 442.137,403.129 443.104,399.506 C444.311,396.124 444.794,392.501 444.794,388.637 C444.794,381.632 443.587,375.594 441.171,369.797 C438.756,364 434.891,359.169 429.819,355.304 C424.747,351.44 417.983,348.3 409.771,346.126 C401.559,343.952 391.655,342.986 380.061,342.986 L317.986,342.986 L317.986,511.823 L385.375,511.823 C395.52,511.823 404.457,510.615 412.428,507.958 C420.157,505.301 426.92,501.678 432.234,497.089 C437.79,492.499 441.654,487.185 444.553,480.905 C447.451,474.867 448.901,468.104 448.659,460.857 C448.659,451.196 446.002,443.467 440.688,437.428 L440.688,437.428 Z" id="Fill-71" sketch:type="MSShapeGroup"></path>
            <path d="M578.849,372.937 L578.849,342.986 L470.156,342.986 L470.156,511.823 L578.849,511.823 L578.849,481.63 L509.527,481.63 L509.527,441.293 L562.666,441.293 L562.666,412.307 L509.527,412.307 L509.527,372.937 L578.849,372.937" id="Fill-72" sketch:type="MSShapeGroup"></path>
            <path d="M999.46,264.897 C982.95,264.897 973.42,275.961 973.42,294.345 C973.42,312.898 983.12,323.792 999.46,323.792 C1015.8,323.792 1025.34,312.898 1025.34,294.345 C1025.51,275.961 1015.8,264.897 999.46,264.897 L999.46,264.897 Z M999.46,341.495 C970.7,341.495 951.46,321.069 951.46,294.345 C951.46,267.62 970.7,247.195 999.46,247.195 C1028.06,247.195 1047.29,267.791 1047.29,294.345 C1047.29,320.899 1028.23,341.495 999.46,341.495 L999.46,341.495 Z" id="Fill-73" sketch:type="MSShapeGroup"></path>
            <path d="M1106.7,293.494 L1117.76,293.494 C1128.83,293.494 1133.42,287.876 1133.42,278.344 C1133.42,270.004 1128.49,264.216 1117.76,264.216 L1106.7,264.216 L1106.7,293.494 L1106.7,293.494 Z M1106.7,309.664 L1106.7,340.473 L1085.25,340.473 L1085.25,248.216 L1117.76,248.216 C1143.64,248.216 1154.87,261.323 1154.87,278.344 C1154.87,296.728 1143.3,309.664 1117.76,309.664 L1106.7,309.664 L1106.7,309.664 Z" id="Fill-74" sketch:type="MSShapeGroup"></path>
            <path d="M1253.43,248.216 L1253.43,264.727 L1215.64,264.727 L1215.64,286.174 L1244.58,286.174 L1244.58,302.004 L1215.64,302.004 L1215.64,323.962 L1253.43,323.962 L1253.43,340.473 L1194.02,340.473 L1194.02,248.216 L1253.43,248.216" id="Fill-75" sketch:type="MSShapeGroup"></path>
            <path d="M1316.58,251.45 L1360.32,306.77 C1359.98,303.196 1359.81,299.792 1359.81,296.898 L1359.81,248.046 L1378.71,248.046 L1378.71,340.304 L1367.64,340.304 C1364.41,340.304 1362.2,339.453 1360.15,336.729 L1316.75,281.749 C1316.92,284.983 1317.26,288.047 1317.26,290.77 L1317.26,340.133 L1298.36,340.133 L1298.36,247.875 L1309.6,247.875 C1313.17,248.216 1314.37,248.726 1316.58,251.45" id="Fill-76" sketch:type="MSShapeGroup"></path>
            <path d="M977.68,456.562 L981.08,456.562 C984.31,456.562 986.53,455.54 987.89,453.668 L1008.66,423.539 C1010.87,420.306 1013.59,419.284 1017.85,419.284 L1036.4,419.284 L1009.17,456.562 C1007.12,459.285 1005.08,460.987 1002.87,462.179 C1006.1,463.37 1008.66,465.243 1010.87,468.817 L1038.78,511.542 L1019.72,511.542 C1014.78,511.542 1013.08,510.18 1011.38,507.627 L990.44,475.456 C988.91,473.073 986.87,472.222 982.78,472.222 L977.68,472.222 L977.68,511.542 L956.4,511.542 L956.4,419.284 L977.85,419.284 L977.85,456.562 L977.68,456.562" id="Fill-77" sketch:type="MSShapeGroup"></path>
            <path d="M1097.85,422.518 L1141.59,477.839 C1141.25,474.264 1141.08,470.86 1141.08,467.966 L1141.08,419.114 L1159.98,419.114 L1159.98,511.371 L1148.91,511.371 C1145.68,511.371 1143.47,510.52 1141.42,507.797 L1098.02,452.817 C1098.19,456.051 1098.53,459.115 1098.53,461.838 L1098.53,511.202 L1079.64,511.202 L1079.64,418.944 L1090.87,418.944 C1094.44,419.284 1095.47,419.795 1097.85,422.518" id="Fill-78" sketch:type="MSShapeGroup"></path>
            <path d="M1248.83,435.965 C1232.32,435.965 1222.79,447.03 1222.79,465.413 C1222.79,483.967 1232.49,494.86 1248.83,494.86 C1265.17,494.86 1274.7,483.967 1274.7,465.413 C1274.7,447.03 1265.17,435.965 1248.83,435.965 L1248.83,435.965 Z M1248.83,512.563 C1220.06,512.563 1200.83,492.137 1200.83,465.413 C1200.83,438.689 1220.06,418.263 1248.83,418.263 C1277.43,418.263 1296.66,438.859 1296.66,465.413 C1296.66,491.967 1277.43,512.563 1248.83,512.563 L1248.83,512.563 Z" id="Fill-79" sketch:type="MSShapeGroup"></path>
            <path d="M1320.15,419.284 L1338.2,419.284 C1341.94,419.284 1344.49,421.157 1345.34,423.88 L1357.94,472.052 C1358.79,475.115 1359.64,478.69 1360.15,482.605 C1361,478.69 1362.03,475.116 1363.05,472.052 L1378.03,423.88 C1378.71,421.497 1381.43,419.284 1385.01,419.284 L1391.3,419.284 C1395.05,419.284 1397.43,420.986 1398.45,423.88 L1413.26,472.052 C1414.28,474.945 1415.3,478.349 1415.98,482.094 C1416.67,478.349 1417.35,474.945 1418.2,472.052 L1430.79,423.88 C1431.47,421.327 1434.2,419.284 1437.77,419.284 L1454.62,419.284 L1426.2,511.542 L1406.79,511.542 L1389.43,454.349 C1388.92,452.647 1388.24,450.434 1387.56,448.051 C1387.05,450.434 1386.37,452.476 1385.69,454.349 L1368.15,511.542 L1348.75,511.542 L1320.15,419.284" id="Fill-80" sketch:type="MSShapeGroup"></path>
            <path d="M1514.37,494.35 L1548.58,494.35 L1548.58,511.371 L1492.92,511.371 L1492.92,419.114 L1514.37,419.114 L1514.37,494.35" id="Fill-81" sketch:type="MSShapeGroup"></path>
            <path d="M1653.44,419.284 L1653.44,435.795 L1615.65,435.795 L1615.65,457.243 L1644.59,457.243 L1644.59,473.073 L1615.65,473.073 L1615.65,495.031 L1653.44,495.031 L1653.44,511.542 L1594.03,511.542 L1594.03,419.284 L1653.44,419.284" id="Fill-82" sketch:type="MSShapeGroup"></path>
            <path d="M1734.12,435.795 L1719.82,435.795 L1719.82,495.031 L1734.12,495.031 C1750.46,495.031 1759.99,483.796 1759.99,465.413 C1760.16,447.03 1750.46,435.795 1734.12,435.795 L1734.12,435.795 Z M1734.12,511.542 L1698.38,511.542 L1698.38,419.284 L1734.12,419.284 C1762.72,419.284 1781.95,438.859 1781.95,465.413 C1782.12,491.967 1762.89,511.542 1734.12,511.542 L1734.12,511.542 Z" id="Fill-83" sketch:type="MSShapeGroup"></path>
            <path d="M1877.95,493.328 L1877.95,479.371 L1868.76,479.371 C1866.04,479.371 1864.51,477.839 1864.51,475.626 L1864.51,463.881 L1897.36,463.881 L1897.36,502.861 C1888,509.84 1877.1,512.733 1861.95,512.733 C1835.06,512.733 1814.8,492.648 1814.8,465.583 C1814.8,438.008 1833.87,418.433 1863.49,418.433 C1878.98,418.433 1890.38,423.71 1897.87,430.859 L1891.74,440.221 C1890.55,441.923 1888.85,443.115 1886.98,443.115 C1885.78,443.115 1884.42,442.604 1883.06,441.923 C1876.25,437.838 1871.49,436.136 1862.97,436.136 C1846.97,436.136 1836.93,447.88 1836.93,465.583 C1836.93,485.158 1848.34,496.222 1863.83,496.222 C1869.44,496.052 1873.87,495.031 1877.95,493.328" id="Fill-84" sketch:type="MSShapeGroup"></path>
            <path d="M2000,419.284 L2000,435.795 L1962.21,435.795 L1962.21,457.243 L1991.15,457.243 L1991.15,473.073 L1962.21,473.073 L1962.21,495.031 L2000,495.031 L2000,511.542 L1940.59,511.542 L1940.59,419.284 L2000,419.284" id="Fill-85" sketch:type="MSShapeGroup"></path>
            <path d="M972.06,641.247 L972.06,672.737 L991.63,672.737 C995.21,672.737 998.1,672.397 1000.66,671.546 C1003.21,670.695 1005.25,669.673 1006.78,668.141 C1008.49,666.61 1009.68,664.908 1010.36,663.035 C1011.04,660.993 1011.55,658.78 1011.55,656.396 C1011.55,651.63 1009.85,648.056 1006.61,645.332 C1003.38,642.609 998.27,641.247 991.63,641.247 L972.06,641.247 L972.06,641.247 Z M972.06,632.396 L988.23,632.396 C991.63,632.396 994.7,632.056 997.25,631.204 C999.8,630.353 1001.85,629.332 1003.55,627.97 C1005.25,626.609 1006.44,624.907 1007.29,623.034 C1008.14,621.161 1008.49,618.949 1008.49,616.736 C1008.49,611.459 1006.95,607.544 1003.72,604.991 C1000.49,602.438 995.55,601.246 988.74,601.246 L972.06,601.246 L972.06,632.396 L972.06,632.396 Z M959.8,682.61 L959.8,591.884 L988.74,591.884 C994.36,591.884 999.12,592.395 1003.21,593.586 C1007.29,594.778 1010.53,596.31 1013.08,598.352 C1015.63,600.395 1017.68,602.778 1018.87,605.842 C1020.06,608.736 1020.74,612.14 1020.74,615.715 C1020.74,617.928 1020.4,620.14 1019.72,622.183 C1019.04,624.225 1018.02,626.098 1016.49,627.97 C1015.12,629.672 1013.25,631.374 1011.21,632.736 C1009,634.098 1006.61,635.289 1003.72,636.14 C1010.36,637.502 1015.29,639.886 1018.7,643.29 C1022.1,646.694 1023.8,651.29 1023.8,656.907 C1023.8,660.822 1023.12,664.226 1021.76,667.461 C1020.4,670.695 1018.36,673.418 1015.63,675.631 C1012.91,677.844 1009.51,679.716 1005.59,680.908 C1001.68,682.099 997.08,682.78 992.14,682.78 L959.8,682.78 L959.8,682.61 L959.8,682.61 Z" id="Fill-86" sketch:type="MSShapeGroup"></path>
            <path d="M1135.47,591.884 L1135.47,601.927 L1091.89,601.927 L1091.89,632.056 L1127.13,632.056 L1127.13,641.758 L1091.89,641.758 L1091.89,672.738 L1135.47,672.738 L1135.47,682.78 L1079.64,682.78 L1079.64,592.055 L1135.47,592.055 L1135.47,591.884" id="Fill-87" sketch:type="MSShapeGroup"></path>
            <path d="M1203.55,672.227 L1242.87,672.227 L1242.87,682.61 L1191.3,682.61 L1191.3,591.884 L1203.55,591.884 L1203.55,672.227" id="Fill-88" sketch:type="MSShapeGroup"></path>
            <path d="M1334.62,673.588 C1337,673.588 1339.39,673.418 1341.43,673.248 C1343.47,673.078 1345.34,672.737 1347.22,672.227 C1349.09,671.716 1350.79,671.205 1352.32,670.525 C1353.86,669.844 1355.56,669.163 1357.09,668.312 L1357.09,648.226 L1342.96,648.226 C1342.11,648.226 1341.6,648.056 1341.09,647.545 C1340.58,647.035 1340.41,646.524 1340.41,645.843 L1340.41,638.864 L1368.32,638.864 L1368.32,673.759 C1366.11,675.461 1363.73,676.823 1361.18,678.014 C1358.79,679.205 1356.07,680.227 1353.35,681.078 C1350.62,681.929 1347.56,682.44 1344.32,682.951 C1341.09,683.291 1337.69,683.631 1333.94,683.631 C1327.3,683.631 1321.34,682.44 1315.9,680.227 C1310.45,678.014 1305.68,674.78 1301.77,670.695 C1297.85,666.61 1294.79,661.673 1292.58,656.056 C1290.36,650.439 1289.17,644.141 1289.17,637.332 C1289.17,630.353 1290.19,624.055 1292.41,618.438 C1294.62,612.821 1297.68,607.885 1301.77,603.799 C1305.85,599.714 1310.62,596.65 1316.41,594.267 C1322.2,592.055 1328.49,590.863 1335.64,590.863 C1339.22,590.863 1342.62,591.203 1345.69,591.714 C1348.75,592.224 1351.64,593.076 1354.2,593.927 C1356.92,594.948 1359.3,596.14 1361.52,597.501 C1363.73,598.863 1365.77,600.565 1367.81,602.267 L1364.41,607.885 C1363.73,609.076 1362.71,609.587 1361.69,609.587 C1361.01,609.587 1360.32,609.416 1359.47,608.906 C1358.45,608.395 1357.26,607.544 1355.9,606.693 C1354.54,605.842 1353,604.991 1351.13,604.31 C1349.26,603.629 1347.05,602.948 1344.49,602.267 C1341.94,601.586 1338.88,601.416 1335.47,601.416 C1330.37,601.416 1325.77,602.267 1321.69,603.97 C1317.6,605.672 1314.03,608.055 1311.13,611.119 C1308.24,614.182 1306.03,617.928 1304.49,622.353 C1302.96,626.779 1302.11,631.715 1302.11,637.162 C1302.11,642.95 1302.96,648.056 1304.49,652.481 C1306.2,656.907 1308.41,660.822 1311.3,663.886 C1314.2,666.95 1317.77,669.333 1321.86,671.035 C1325.26,672.737 1329.86,673.588 1334.62,673.588" id="Fill-89" sketch:type="MSShapeGroup"></path>
            <path d="M1427.39,591.884 L1439.65,591.884 L1439.65,682.61 L1427.39,682.61 L1427.39,591.884 Z" id="Fill-90" sketch:type="MSShapeGroup"></path>
            <path d="M1537.35,672.737 C1541.09,672.737 1544.5,672.057 1547.39,670.865 C1550.29,669.673 1552.84,667.801 1554.88,665.588 C1556.93,663.375 1558.46,660.652 1559.65,657.418 C1560.84,654.184 1561.18,650.779 1561.18,647.035 L1561.18,591.884 L1573.44,591.884 L1573.44,647.035 C1573.44,652.311 1572.58,657.078 1570.88,661.673 C1569.18,666.099 1566.8,670.014 1563.73,673.248 C1560.67,676.482 1556.93,679.036 1552.33,680.908 C1547.9,682.78 1542.8,683.631 1537.18,683.631 C1531.56,683.631 1526.63,682.78 1522.03,680.908 C1517.43,679.036 1513.69,676.482 1510.63,673.248 C1507.56,670.014 1505.18,666.099 1503.48,661.673 C1501.77,657.247 1500.92,652.311 1500.92,647.035 L1500.92,591.884 L1513.18,591.884 L1513.18,647.035 C1513.18,650.779 1513.69,654.354 1514.71,657.418 C1515.73,660.482 1517.26,663.375 1519.48,665.588 C1521.69,667.801 1524.07,669.673 1526.97,670.865 C1529.86,672.057 1533.43,672.737 1537.35,672.737" id="Fill-91" sketch:type="MSShapeGroup"></path>
            <path d="M1678.63,652.992 C1679.14,654.184 1679.48,655.205 1679.99,656.396 C1680.33,655.205 1680.84,654.014 1681.35,652.992 C1681.86,651.971 1682.38,650.779 1682.89,649.758 L1713.52,593.927 C1714.04,592.906 1714.72,592.395 1715.23,592.224 C1715.74,592.055 1716.59,591.884 1717.78,591.884 L1726.8,591.884 L1726.8,682.61 L1716.08,682.61 L1716.08,615.885 L1716.08,612.991 C1716.08,611.97 1716.25,610.949 1716.25,609.927 L1685.1,666.61 C1684.08,668.482 1682.55,669.503 1680.67,669.503 L1678.97,669.503 C1677.1,669.503 1675.57,668.482 1674.55,666.61 L1642.71,609.757 C1642.88,610.778 1642.88,611.97 1643.05,612.991 C1643.05,614.013 1643.23,615.034 1643.23,615.885 L1643.23,682.61 L1632.5,682.61 L1632.5,591.884 L1641.52,591.884 C1642.54,591.884 1643.4,592.055 1644.08,592.224 C1644.59,592.395 1645.27,593.076 1645.78,593.927 L1677.1,649.758 C1677.61,650.779 1678.12,651.801 1678.63,652.992" id="Fill-92" sketch:type="MSShapeGroup"></path>
        </g>
    </g>
</svg>